<svg width="605" height="119" viewBox="0 0 605 119" fill="none" xmlns="http://www.w3.org/2000/svg">
<path d="M37.9529 37.953H48.2105V105.653H37.9529V37.953Z" fill="#F5F5F5"/>
<rect x="16.4121" y="115.91" width="10.2576" height="53.3393" transform="rotate(-90 16.4121 115.91)" fill="#F5F5F5"/>
<rect x="48.2834" y="44.9698" width="10.2576" height="53.3393" transform="rotate(-135 48.2834 44.9698)" fill="#F5F5F5"/>
<rect x="44.9698" y="37.7166" width="10.2576" height="53.3393" transform="rotate(135 44.9698 37.7166)" fill="#F5F5F5"/>
<path d="M43 29.5L19 6L66.1848 6L43 29.5Z" fill="#DA5C26"/>
<path fill-rule="evenodd" clip-rule="evenodd" d="M135.983 2L169.965 103.562L195.549 95.618L198.515 105.168L163.465 116.051L161.739 110.491L142.061 51.679L97.6915 115.045L86 115L138.114 39.8847L128.784 12H106.5V2H135.5V2.16169L135.983 2Z" fill="#DA5C26"/>
<path d="M252.304 4.8V66.912H284.368V72H246.448V4.8H252.304Z" fill="#F5F5F5"/>
<path d="M325.811 72L325.427 61.824C324.083 65.28 321.971 67.968 319.091 69.888C316.275 71.744 312.691 72.672 308.339 72.672C304.883 72.672 301.939 72.16 299.507 71.136C297.075 70.048 295.187 68.512 293.843 66.528C292.563 64.544 291.923 62.176 291.923 59.424C291.923 55.392 293.427 52.128 296.435 49.632C299.443 47.072 303.923 45.504 309.875 44.928L325.427 43.2V39.168C325.427 35.84 324.307 33.248 322.067 31.392C319.891 29.472 316.851 28.512 312.947 28.512C309.235 28.512 306.131 29.376 303.635 31.104C301.203 32.832 299.571 35.296 298.739 38.496L293.747 36.768C294.963 32.48 297.235 29.184 300.563 26.88C303.891 24.512 308.051 23.328 313.043 23.328C318.675 23.328 323.059 24.736 326.195 27.552C329.331 30.368 330.899 34.24 330.899 39.168V72H325.811ZM325.427 47.904L309.779 49.728C305.683 50.176 302.643 51.2 300.659 52.8C298.739 54.336 297.779 56.448 297.779 59.136C297.779 61.824 298.707 63.936 300.563 65.472C302.483 67.008 305.203 67.776 308.723 67.776C312.435 67.776 315.507 67.04 317.939 65.568C320.435 64.032 322.291 61.952 323.507 59.328C324.787 56.64 325.427 53.632 325.427 50.304V47.904Z" fill="#F5F5F5"/>
<path d="M345.524 24H350.612L350.996 32.736C352.212 29.92 354.068 27.648 356.564 25.92C359.06 24.192 362.26 23.328 366.164 23.328C369.748 23.328 372.98 24.256 375.86 26.112C378.74 27.968 380.884 30.784 382.292 34.56C383.636 30.72 385.844 27.904 388.916 26.112C391.988 24.256 395.444 23.328 399.284 23.328C402.804 23.328 405.94 24.128 408.692 25.728C411.444 27.264 413.588 29.6 415.124 32.736C416.66 35.872 417.428 39.808 417.428 44.544V72H411.956V45.12C411.956 39.68 410.772 35.552 408.404 32.736C406.036 29.856 402.708 28.416 398.42 28.416C394.004 28.416 390.484 29.984 387.86 33.12C385.3 36.256 384.02 40.864 384.02 46.944V72H378.452V45.12C378.452 39.68 377.3 35.552 374.996 32.736C372.756 29.856 369.492 28.416 365.204 28.416C360.788 28.416 357.3 29.984 354.74 33.12C352.244 36.256 350.996 40.864 350.996 46.944V72H345.524V24Z" fill="#F5F5F5"/>
<path d="M436.953 35.136C438.233 31.808 440.441 29.024 443.577 26.784C446.713 24.48 450.745 23.328 455.673 23.328C460.089 23.328 463.961 24.352 467.289 26.4C470.617 28.448 473.177 31.328 474.969 35.04C476.825 38.688 477.753 43.008 477.753 48C477.753 52.992 476.825 57.344 474.969 61.056C473.113 64.768 470.521 67.648 467.193 69.696C463.929 71.68 460.089 72.672 455.673 72.672C451.001 72.672 447.129 71.584 444.057 69.408C440.985 67.232 438.777 64.576 437.433 61.44L437.049 72H431.961V2.88H437.433V35.328L436.953 35.136ZM471.897 48C471.897 41.984 470.329 37.216 467.193 33.696C464.057 30.176 459.865 28.416 454.617 28.416C451.289 28.416 448.313 29.216 445.689 30.816C443.065 32.416 441.017 34.688 439.545 37.632C438.137 40.512 437.433 43.968 437.433 48C437.433 52.032 438.169 55.52 439.641 58.464C441.113 61.344 443.129 63.584 445.689 65.184C448.313 66.784 451.289 67.584 454.617 67.584C459.929 67.584 464.121 65.824 467.193 62.304C470.329 58.784 471.897 54.016 471.897 48Z" fill="#F5F5F5"/>
<path d="M527.627 35.136L527.147 35.328V2.88H532.619V72H527.531L527.147 61.44C525.803 64.576 523.563 67.232 520.427 69.408C517.355 71.584 513.515 72.672 508.907 72.672C504.491 72.672 500.619 71.68 497.291 69.696C493.963 67.648 491.371 64.768 489.515 61.056C487.723 57.344 486.827 52.992 486.827 48C486.827 43.008 487.723 38.688 489.515 35.04C491.371 31.328 493.963 28.448 497.291 26.4C500.619 24.352 504.491 23.328 508.907 23.328C513.771 23.328 517.771 24.48 520.907 26.784C524.043 29.024 526.283 31.808 527.627 35.136ZM492.683 48C492.683 54.016 494.219 58.784 497.291 62.304C500.427 65.824 504.651 67.584 509.963 67.584C513.291 67.584 516.235 66.784 518.795 65.184C521.419 63.584 523.467 61.344 524.939 58.464C526.411 55.52 527.147 52.032 527.147 48C527.147 43.968 526.411 40.512 524.939 37.632C523.467 34.688 521.419 32.416 518.795 30.816C516.235 29.216 513.291 28.416 509.963 28.416C504.651 28.416 500.427 30.176 497.291 33.696C494.219 37.216 492.683 41.984 492.683 48Z" fill="#F5F5F5"/>
<path d="M578.748 72L578.364 61.824C577.02 65.28 574.908 67.968 572.028 69.888C569.212 71.744 565.628 72.672 561.276 72.672C557.82 72.672 554.876 72.16 552.444 71.136C550.012 70.048 548.124 68.512 546.78 66.528C545.5 64.544 544.86 62.176 544.86 59.424C544.86 55.392 546.364 52.128 549.372 49.632C552.38 47.072 556.86 45.504 562.812 44.928L578.364 43.2V39.168C578.364 35.84 577.244 33.248 575.004 31.392C572.828 29.472 569.788 28.512 565.884 28.512C562.172 28.512 559.068 29.376 556.572 31.104C554.14 32.832 552.508 35.296 551.676 38.496L546.684 36.768C547.9 32.48 550.172 29.184 553.5 26.88C556.828 24.512 560.988 23.328 565.98 23.328C571.612 23.328 575.996 24.736 579.132 27.552C582.268 30.368 583.836 34.24 583.836 39.168V72H578.748ZM578.364 47.904L562.716 49.728C558.62 50.176 555.58 51.2 553.596 52.8C551.676 54.336 550.716 56.448 550.716 59.136C550.716 61.824 551.644 63.936 553.5 65.472C555.42 67.008 558.14 67.776 561.66 67.776C565.372 67.776 568.444 67.04 570.876 65.568C573.372 64.032 575.228 61.952 576.444 59.328C577.724 56.64 578.364 53.632 578.364 50.304V47.904Z" fill="#F5F5F5"/>
<path d="M244.032 105.6C244.032 104.336 244.24 103.184 244.656 102.144C245.072 101.088 245.656 100.184 246.408 99.432C247.176 98.664 248.056 98.072 249.048 97.656C250.056 97.24 251.152 97.032 252.336 97.032C254.064 97.032 255.576 97.432 256.872 98.232C258.184 99.032 259.176 100.168 259.848 101.64L258.288 102.216C257.92 101.432 257.432 100.792 256.824 100.296C256.216 99.784 255.528 99.4 254.76 99.144C253.992 98.888 253.184 98.76 252.336 98.76C251.136 98.76 250.056 99.032 249.096 99.576C248.136 100.12 247.376 100.904 246.816 101.928C246.272 102.952 246 104.176 246 105.6C246 107.008 246.272 108.224 246.816 109.248C247.376 110.272 248.136 111.064 249.096 111.624C250.056 112.168 251.136 112.44 252.336 112.44C253.2 112.44 254.024 112.304 254.808 112.032C255.592 111.76 256.296 111.336 256.92 110.76C257.56 110.184 258.072 109.464 258.456 108.6L260.016 109.176C259.328 110.824 258.32 112.072 256.992 112.92C255.664 113.752 254.112 114.168 252.336 114.168C251.152 114.168 250.056 113.96 249.048 113.544C248.056 113.128 247.176 112.536 246.408 111.768C245.656 111 245.072 110.096 244.656 109.056C244.24 108 244.032 106.848 244.032 105.6Z" fill="#E0E0E0"/>
<path d="M268.384 114.168C267.248 114.168 266.232 113.92 265.336 113.424C264.44 112.928 263.736 112.224 263.224 111.312C262.712 110.384 262.456 109.288 262.456 108.024C262.456 106.744 262.712 105.64 263.224 104.712C263.752 103.784 264.464 103.072 265.36 102.576C266.272 102.08 267.296 101.832 268.432 101.832C269.568 101.832 270.584 102.08 271.48 102.576C272.392 103.072 273.104 103.784 273.616 104.712C274.144 105.624 274.408 106.712 274.408 107.976C274.408 109.256 274.144 110.36 273.616 111.288C273.088 112.216 272.368 112.928 271.456 113.424C270.544 113.92 269.52 114.168 268.384 114.168ZM268.36 112.464C269.064 112.464 269.728 112.312 270.352 112.008C270.976 111.688 271.48 111.2 271.864 110.544C272.264 109.872 272.464 109.024 272.464 108C272.464 106.96 272.272 106.112 271.888 105.456C271.504 104.8 271 104.32 270.376 104.016C269.768 103.696 269.112 103.536 268.408 103.536C267.704 103.536 267.048 103.696 266.44 104.016C265.832 104.32 265.336 104.808 264.952 105.48C264.584 106.136 264.4 106.976 264.4 108C264.4 109.04 264.584 109.888 264.952 110.544C265.32 111.2 265.8 111.688 266.392 112.008C267 112.312 267.656 112.464 268.36 112.464Z" fill="#E0E0E0"/>
<path d="M277.356 102H279.012L279.132 103.728C279.484 103.152 279.956 102.696 280.548 102.36C281.156 102.008 281.876 101.832 282.708 101.832C283.556 101.832 284.324 102.04 285.012 102.456C285.716 102.856 286.26 103.456 286.644 104.256C287.012 103.44 287.572 102.832 288.324 102.432C289.076 102.032 289.908 101.832 290.82 101.832C291.716 101.832 292.508 102.032 293.196 102.432C293.884 102.816 294.42 103.4 294.804 104.184C295.188 104.952 295.38 105.92 295.38 107.088V114H293.58V107.304C293.58 106.056 293.308 105.112 292.764 104.472C292.236 103.816 291.476 103.488 290.484 103.488C289.476 103.488 288.676 103.84 288.084 104.544C287.492 105.232 287.196 106.256 287.196 107.616V114H285.396V107.304C285.396 106.056 285.14 105.112 284.628 104.472C284.116 103.816 283.364 103.488 282.372 103.488C281.364 103.488 280.572 103.84 279.996 104.544C279.436 105.232 279.156 106.256 279.156 107.616V114H277.356V102Z" fill="#E0E0E0"/>
<path d="M299.231 102H301.007V114H299.231V102ZM300.143 99.6C299.775 99.6 299.471 99.48 299.231 99.24C298.991 99 298.871 98.704 298.871 98.352C298.871 97.984 298.991 97.68 299.231 97.44C299.471 97.2 299.775 97.08 300.143 97.08C300.479 97.08 300.767 97.2 301.007 97.44C301.263 97.68 301.391 97.984 301.391 98.352C301.391 98.704 301.263 99 301.007 99.24C300.767 99.48 300.479 99.6 300.143 99.6Z" fill="#E0E0E0"/>
<path d="M314.323 104.424L314.131 104.448V96.72H315.931V114H314.275L314.155 111.768C313.787 112.44 313.235 113.008 312.499 113.472C311.779 113.936 310.883 114.168 309.811 114.168C308.707 114.168 307.739 113.92 306.907 113.424C306.091 112.912 305.451 112.192 304.987 111.264C304.539 110.336 304.315 109.248 304.315 108C304.315 106.752 304.539 105.672 304.987 104.76C305.451 103.832 306.091 103.112 306.907 102.6C307.739 102.088 308.707 101.832 309.811 101.832C310.947 101.832 311.891 102.08 312.643 102.576C313.395 103.072 313.955 103.688 314.323 104.424ZM306.259 108C306.259 109.376 306.611 110.472 307.315 111.288C308.019 112.088 308.979 112.488 310.195 112.488C310.947 112.488 311.619 112.312 312.211 111.96C312.803 111.608 313.267 111.096 313.603 110.424C313.955 109.752 314.131 108.944 314.131 108C314.131 107.056 313.955 106.256 313.603 105.6C313.267 104.928 312.803 104.416 312.211 104.064C311.619 103.696 310.947 103.512 310.195 103.512C308.995 103.512 308.035 103.92 307.315 104.736C306.611 105.536 306.259 106.624 306.259 108Z" fill="#E0E0E0"/>
<path d="M327.126 114L326.982 111.84C326.646 112.576 326.15 113.152 325.494 113.568C324.838 113.968 324.006 114.168 322.998 114.168C322.134 114.168 321.398 114.032 320.79 113.76C320.182 113.488 319.71 113.104 319.374 112.608C319.054 112.096 318.894 111.496 318.894 110.808C318.894 109.8 319.27 108.976 320.022 108.336C320.774 107.68 321.862 107.28 323.286 107.136L326.982 106.728V105.768C326.982 105.096 326.734 104.56 326.238 104.16C325.742 103.744 325.07 103.536 324.222 103.536C323.39 103.536 322.694 103.728 322.134 104.112C321.59 104.496 321.214 105.048 321.006 105.768L319.374 105.192C319.694 104.136 320.278 103.312 321.126 102.72C321.99 102.128 323.038 101.832 324.27 101.832C325.694 101.832 326.798 102.2 327.582 102.936C328.382 103.656 328.782 104.64 328.782 105.888V114H327.126ZM326.982 108.264L323.262 108.696C322.462 108.792 321.854 109.016 321.438 109.368C321.022 109.704 320.814 110.152 320.814 110.712C320.814 111.272 321.014 111.72 321.414 112.056C321.83 112.392 322.422 112.56 323.19 112.56C324.07 112.56 324.79 112.384 325.35 112.032C325.91 111.68 326.318 111.208 326.574 110.616C326.846 110.008 326.982 109.352 326.982 108.648V108.264Z" fill="#E0E0E0"/>
<path d="M333.277 110.328C333.373 110.808 333.549 111.208 333.805 111.528C334.061 111.832 334.389 112.064 334.789 112.224C335.205 112.384 335.685 112.464 336.229 112.464C337.077 112.464 337.717 112.304 338.149 111.984C338.597 111.648 338.821 111.232 338.821 110.736C338.821 110.32 338.685 109.984 338.413 109.728C338.157 109.472 337.813 109.264 337.381 109.104C336.949 108.928 336.469 108.776 335.941 108.648C335.525 108.552 335.077 108.44 334.597 108.312C334.117 108.168 333.661 107.976 333.229 107.736C332.797 107.496 332.445 107.184 332.173 106.8C331.901 106.416 331.765 105.912 331.765 105.288C331.765 104.6 331.949 104 332.317 103.488C332.701 102.96 333.221 102.552 333.877 102.264C334.549 101.976 335.317 101.832 336.181 101.832C337.173 101.832 338.053 102.048 338.821 102.48C339.605 102.912 340.149 103.584 340.453 104.496L338.773 105.072C338.661 104.656 338.453 104.336 338.149 104.112C337.861 103.888 337.533 103.736 337.165 103.656C336.813 103.576 336.461 103.536 336.109 103.536C335.389 103.536 334.805 103.68 334.357 103.968C333.925 104.24 333.709 104.656 333.709 105.216C333.709 105.52 333.781 105.776 333.925 105.984C334.069 106.176 334.269 106.336 334.525 106.464C334.781 106.592 335.085 106.704 335.437 106.8C335.789 106.88 336.173 106.976 336.589 107.088C337.053 107.2 337.525 107.344 338.005 107.52C338.485 107.68 338.933 107.896 339.349 108.168C339.765 108.424 340.101 108.76 340.357 109.176C340.629 109.576 340.765 110.08 340.765 110.688C340.765 111.392 340.573 112.008 340.189 112.536C339.805 113.048 339.269 113.448 338.581 113.736C337.909 114.024 337.125 114.168 336.229 114.168C334.997 114.168 333.973 113.896 333.157 113.352C332.357 112.792 331.821 111.976 331.549 110.904L333.277 110.328Z" fill="#E0E0E0"/>
<path d="M344.524 111.096H346.636L344.044 117.48H342.748L344.524 111.096Z" fill="#E0E0E0"/>
<path d="M358.347 104.424C358.699 103.688 359.251 103.072 360.003 102.576C360.755 102.08 361.707 101.832 362.859 101.832C363.963 101.832 364.923 102.088 365.739 102.6C366.571 103.112 367.211 103.832 367.659 104.76C368.123 105.672 368.355 106.752 368.355 108C368.355 109.248 368.123 110.336 367.659 111.264C367.195 112.192 366.547 112.912 365.715 113.424C364.899 113.92 363.947 114.168 362.859 114.168C361.771 114.168 360.867 113.936 360.147 113.472C359.427 113.008 358.883 112.44 358.515 111.768L358.395 114H356.739V96.72H358.539V104.448L358.347 104.424ZM366.411 108C366.411 106.624 366.051 105.536 365.331 104.736C364.627 103.92 363.675 103.512 362.475 103.512C361.723 103.512 361.043 103.696 360.435 104.064C359.843 104.416 359.379 104.928 359.043 105.6C358.707 106.256 358.539 107.056 358.539 108C358.539 108.944 358.707 109.752 359.043 110.424C359.379 111.096 359.843 111.608 360.435 111.96C361.043 112.312 361.723 112.488 362.475 112.488C363.675 112.488 364.627 112.088 365.331 111.288C366.051 110.472 366.411 109.376 366.411 108Z" fill="#E0E0E0"/>
<path d="M376.333 114.168C375.213 114.168 374.213 113.896 373.333 113.352C372.469 112.808 371.789 112.064 371.293 111.12C370.797 110.176 370.549 109.096 370.549 107.88C370.549 106.712 370.797 105.672 371.293 104.76C371.789 103.848 372.469 103.136 373.333 102.624C374.197 102.096 375.181 101.832 376.285 101.832C377.373 101.832 378.341 102.072 379.189 102.552C380.053 103.032 380.725 103.696 381.205 104.544C381.685 105.392 381.909 106.36 381.877 107.448C381.877 107.624 381.869 107.808 381.853 108C381.837 108.192 381.821 108.4 381.805 108.624H372.517C372.549 109.376 372.733 110.04 373.069 110.616C373.405 111.192 373.845 111.648 374.389 111.984C374.949 112.304 375.581 112.464 376.285 112.464C377.213 112.464 377.997 112.288 378.637 111.936C379.293 111.584 379.765 111.08 380.053 110.424L381.613 111.048C381.133 112.056 380.437 112.832 379.525 113.376C378.613 113.904 377.549 114.168 376.333 114.168ZM379.909 107.064C379.925 106.376 379.773 105.768 379.453 105.24C379.149 104.712 378.717 104.296 378.157 103.992C377.597 103.688 376.949 103.536 376.213 103.536C375.573 103.536 374.989 103.688 374.461 103.992C373.933 104.296 373.493 104.72 373.141 105.264C372.805 105.792 372.605 106.392 372.541 107.064H379.909Z" fill="#E0E0E0"/>
<path d="M386.448 104.424C386.8 103.688 387.352 103.072 388.104 102.576C388.856 102.08 389.808 101.832 390.96 101.832C392.064 101.832 393.024 102.088 393.84 102.6C394.672 103.112 395.312 103.832 395.76 104.76C396.224 105.672 396.456 106.752 396.456 108C396.456 109.248 396.224 110.336 395.76 111.264C395.296 112.192 394.648 112.912 393.816 113.424C393 113.92 392.048 114.168 390.96 114.168C389.872 114.168 388.968 113.936 388.248 113.472C387.528 113.008 386.984 112.44 386.616 111.768L386.496 114H384.84V96.72H386.64V104.448L386.448 104.424ZM394.512 108C394.512 106.624 394.152 105.536 393.432 104.736C392.728 103.92 391.776 103.512 390.576 103.512C389.824 103.512 389.144 103.696 388.536 104.064C387.944 104.416 387.48 104.928 387.144 105.6C386.808 106.256 386.64 107.056 386.64 108C386.64 108.944 386.808 109.752 387.144 110.424C387.48 111.096 387.944 111.608 388.536 111.96C389.144 112.312 389.824 112.488 390.576 112.488C391.776 112.488 392.728 112.088 393.432 111.288C394.152 110.472 394.512 109.376 394.512 108Z" fill="#E0E0E0"/>
<path d="M399.755 102H401.531V114H399.755V102ZM400.667 99.6C400.299 99.6 399.995 99.48 399.755 99.24C399.515 99 399.395 98.704 399.395 98.352C399.395 97.984 399.515 97.68 399.755 97.44C399.995 97.2 400.299 97.08 400.667 97.08C401.003 97.08 401.291 97.2 401.531 97.44C401.787 97.68 401.915 97.984 401.915 98.352C401.915 98.704 401.787 99 401.531 99.24C401.291 99.48 401.003 99.6 400.667 99.6Z" fill="#E0E0E0"/>
<path d="M414.846 104.424L414.654 104.448V96.72H416.454V114H414.798L414.678 111.768C414.31 112.44 413.758 113.008 413.022 113.472C412.302 113.936 411.406 114.168 410.334 114.168C409.23 114.168 408.262 113.92 407.43 113.424C406.614 112.912 405.974 112.192 405.51 111.264C405.062 110.336 404.838 109.248 404.838 108C404.838 106.752 405.062 105.672 405.51 104.76C405.974 103.832 406.614 103.112 407.43 102.6C408.262 102.088 409.23 101.832 410.334 101.832C411.47 101.832 412.414 102.08 413.166 102.576C413.918 103.072 414.478 103.688 414.846 104.424ZM406.782 108C406.782 109.376 407.134 110.472 407.838 111.288C408.542 112.088 409.502 112.488 410.718 112.488C411.47 112.488 412.142 112.312 412.734 111.96C413.326 111.608 413.79 111.096 414.126 110.424C414.478 109.752 414.654 108.944 414.654 108C414.654 107.056 414.478 106.256 414.126 105.6C413.79 104.928 413.326 104.416 412.734 104.064C412.142 103.696 411.47 103.512 410.718 103.512C409.518 103.512 408.558 103.92 407.838 104.736C407.134 105.536 406.782 106.624 406.782 108Z" fill="#E0E0E0"/>
<path d="M427.649 114L427.505 111.84C427.169 112.576 426.673 113.152 426.017 113.568C425.361 113.968 424.529 114.168 423.521 114.168C422.657 114.168 421.921 114.032 421.313 113.76C420.705 113.488 420.233 113.104 419.897 112.608C419.577 112.096 419.417 111.496 419.417 110.808C419.417 109.8 419.793 108.976 420.545 108.336C421.297 107.68 422.385 107.28 423.809 107.136L427.505 106.728V105.768C427.505 105.096 427.257 104.56 426.761 104.16C426.265 103.744 425.593 103.536 424.745 103.536C423.913 103.536 423.217 103.728 422.657 104.112C422.113 104.496 421.737 105.048 421.529 105.768L419.897 105.192C420.217 104.136 420.801 103.312 421.649 102.72C422.513 102.128 423.561 101.832 424.793 101.832C426.217 101.832 427.321 102.2 428.105 102.936C428.905 103.656 429.305 104.64 429.305 105.888V114H427.649ZM427.505 108.264L423.785 108.696C422.985 108.792 422.377 109.016 421.961 109.368C421.545 109.704 421.337 110.152 421.337 110.712C421.337 111.272 421.537 111.72 421.937 112.056C422.353 112.392 422.945 112.56 423.713 112.56C424.593 112.56 425.313 112.384 425.873 112.032C426.433 111.68 426.841 111.208 427.097 110.616C427.369 110.008 427.505 109.352 427.505 108.648V108.264Z" fill="#E0E0E0"/>
<path d="M433.801 110.328C433.897 110.808 434.073 111.208 434.329 111.528C434.585 111.832 434.913 112.064 435.313 112.224C435.729 112.384 436.209 112.464 436.753 112.464C437.601 112.464 438.241 112.304 438.673 111.984C439.121 111.648 439.345 111.232 439.345 110.736C439.345 110.32 439.209 109.984 438.937 109.728C438.681 109.472 438.337 109.264 437.905 109.104C437.473 108.928 436.993 108.776 436.465 108.648C436.049 108.552 435.601 108.44 435.121 108.312C434.641 108.168 434.185 107.976 433.753 107.736C433.321 107.496 432.969 107.184 432.697 106.8C432.425 106.416 432.289 105.912 432.289 105.288C432.289 104.6 432.473 104 432.841 103.488C433.225 102.96 433.745 102.552 434.401 102.264C435.073 101.976 435.841 101.832 436.705 101.832C437.697 101.832 438.577 102.048 439.345 102.48C440.129 102.912 440.673 103.584 440.977 104.496L439.297 105.072C439.185 104.656 438.977 104.336 438.673 104.112C438.385 103.888 438.057 103.736 437.689 103.656C437.337 103.576 436.985 103.536 436.633 103.536C435.913 103.536 435.329 103.68 434.881 103.968C434.449 104.24 434.233 104.656 434.233 105.216C434.233 105.52 434.305 105.776 434.449 105.984C434.593 106.176 434.793 106.336 435.049 106.464C435.305 106.592 435.609 106.704 435.961 106.8C436.313 106.88 436.697 106.976 437.113 107.088C437.577 107.2 438.049 107.344 438.529 107.52C439.009 107.68 439.457 107.896 439.873 108.168C440.289 108.424 440.625 108.76 440.881 109.176C441.153 109.576 441.289 110.08 441.289 110.688C441.289 111.392 441.097 112.008 440.713 112.536C440.329 113.048 439.793 113.448 439.105 113.736C438.433 114.024 437.649 114.168 436.753 114.168C435.521 114.168 434.497 113.896 433.681 113.352C432.881 112.792 432.345 111.976 432.073 110.904L433.801 110.328Z" fill="#E0E0E0"/>
<path d="M445.047 111.096H447.159L444.567 117.48H443.271L445.047 111.096Z" fill="#E0E0E0"/>
<path d="M462.374 114.168C461.206 114.168 460.182 113.912 459.302 113.4C458.422 112.888 457.734 112.176 457.238 111.264C456.758 110.336 456.518 109.264 456.518 108.048C456.518 106.816 456.758 105.736 457.238 104.808C457.734 103.864 458.422 103.136 459.302 102.624C460.182 102.096 461.206 101.832 462.374 101.832C463.606 101.832 464.686 102.12 465.614 102.696C466.542 103.256 467.214 104.04 467.63 105.048L465.974 105.624C465.734 104.984 465.294 104.48 464.654 104.112C464.03 103.728 463.302 103.536 462.47 103.536C461.654 103.536 460.942 103.72 460.334 104.088C459.742 104.456 459.278 104.976 458.942 105.648C458.622 106.32 458.462 107.112 458.462 108.024C458.462 109.368 458.822 110.448 459.542 111.264C460.262 112.064 461.222 112.464 462.422 112.464C463.238 112.464 463.966 112.28 464.606 111.912C465.246 111.544 465.718 111.048 466.022 110.424L467.654 111C467.222 111.992 466.542 112.768 465.614 113.328C464.686 113.888 463.606 114.168 462.374 114.168Z" fill="#E0E0E0"/>
<path d="M470.958 102H472.734V114H470.958V102ZM471.87 99.6C471.502 99.6 471.198 99.48 470.958 99.24C470.718 99 470.598 98.704 470.598 98.352C470.598 97.984 470.718 97.68 470.958 97.44C471.198 97.2 471.502 97.08 471.87 97.08C472.206 97.08 472.494 97.2 472.734 97.44C472.99 97.68 473.118 97.984 473.118 98.352C473.118 98.704 472.99 99 472.734 99.24C472.494 99.48 472.206 99.6 471.87 99.6Z" fill="#E0E0E0"/>
<path d="M481.826 114.168C480.706 114.168 479.706 113.896 478.826 113.352C477.962 112.808 477.281 112.064 476.785 111.12C476.289 110.176 476.042 109.096 476.042 107.88C476.042 106.712 476.289 105.672 476.785 104.76C477.281 103.848 477.962 103.136 478.826 102.624C479.69 102.096 480.673 101.832 481.777 101.832C482.865 101.832 483.834 102.072 484.682 102.552C485.546 103.032 486.217 103.696 486.697 104.544C487.177 105.392 487.401 106.36 487.369 107.448C487.369 107.624 487.362 107.808 487.346 108C487.33 108.192 487.314 108.4 487.298 108.624H478.009C478.041 109.376 478.225 110.04 478.561 110.616C478.897 111.192 479.338 111.648 479.882 111.984C480.442 112.304 481.073 112.464 481.777 112.464C482.705 112.464 483.49 112.288 484.13 111.936C484.786 111.584 485.258 111.08 485.546 110.424L487.105 111.048C486.625 112.056 485.93 112.832 485.018 113.376C484.106 113.904 483.042 114.168 481.826 114.168ZM485.402 107.064C485.418 106.376 485.265 105.768 484.945 105.24C484.641 104.712 484.209 104.296 483.649 103.992C483.089 103.688 482.442 103.536 481.706 103.536C481.066 103.536 480.481 103.688 479.953 103.992C479.425 104.296 478.985 104.72 478.633 105.264C478.297 105.792 478.097 106.392 478.033 107.064H485.402Z" fill="#E0E0E0"/>
<path d="M490.332 102H491.988L492.084 103.704C492.468 103.112 492.972 102.656 493.596 102.336C494.22 102 494.948 101.832 495.78 101.832C496.692 101.832 497.492 102.032 498.18 102.432C498.868 102.816 499.404 103.4 499.788 104.184C500.172 104.952 500.364 105.92 500.364 107.088V114H498.564V107.304C498.564 106.056 498.292 105.112 497.748 104.472C497.22 103.816 496.452 103.488 495.444 103.488C494.404 103.488 493.588 103.832 492.996 104.52C492.42 105.208 492.132 106.224 492.132 107.568V114H490.332V102Z" fill="#E0E0E0"/>
<path d="M508.968 114.168C507.8 114.168 506.776 113.912 505.896 113.4C505.016 112.888 504.328 112.176 503.832 111.264C503.352 110.336 503.112 109.264 503.112 108.048C503.112 106.816 503.352 105.736 503.832 104.808C504.328 103.864 505.016 103.136 505.896 102.624C506.776 102.096 507.8 101.832 508.968 101.832C510.2 101.832 511.28 102.12 512.208 102.696C513.136 103.256 513.808 104.04 514.224 105.048L512.568 105.624C512.328 104.984 511.888 104.48 511.248 104.112C510.624 103.728 509.896 103.536 509.064 103.536C508.248 103.536 507.536 103.72 506.928 104.088C506.336 104.456 505.872 104.976 505.536 105.648C505.216 106.32 505.056 107.112 505.056 108.024C505.056 109.368 505.416 110.448 506.136 111.264C506.856 112.064 507.816 112.464 509.016 112.464C509.832 112.464 510.56 112.28 511.2 111.912C511.84 111.544 512.312 111.048 512.616 110.424L514.248 111C513.816 111.992 513.136 112.768 512.208 113.328C511.28 113.888 510.2 114.168 508.968 114.168Z" fill="#E0E0E0"/>
<path d="M517.552 102H519.328V114H517.552V102ZM518.464 99.6C518.096 99.6 517.792 99.48 517.552 99.24C517.312 99 517.192 98.704 517.192 98.352C517.192 97.984 517.312 97.68 517.552 97.44C517.792 97.2 518.096 97.08 518.464 97.08C518.8 97.08 519.088 97.2 519.328 97.44C519.584 97.68 519.712 97.984 519.712 98.352C519.712 98.704 519.584 99 519.328 99.24C519.088 99.48 518.8 99.6 518.464 99.6Z" fill="#E0E0E0"/>
<path d="M530.891 114L530.747 111.84C530.411 112.576 529.915 113.152 529.259 113.568C528.603 113.968 527.771 114.168 526.763 114.168C525.899 114.168 525.163 114.032 524.555 113.76C523.947 113.488 523.475 113.104 523.139 112.608C522.819 112.096 522.659 111.496 522.659 110.808C522.659 109.8 523.035 108.976 523.787 108.336C524.539 107.68 525.627 107.28 527.051 107.136L530.747 106.728V105.768C530.747 105.096 530.499 104.56 530.003 104.16C529.507 103.744 528.835 103.536 527.987 103.536C527.155 103.536 526.459 103.728 525.899 104.112C525.355 104.496 524.979 105.048 524.771 105.768L523.139 105.192C523.459 104.136 524.043 103.312 524.891 102.72C525.755 102.128 526.803 101.832 528.035 101.832C529.459 101.832 530.563 102.2 531.347 102.936C532.147 103.656 532.547 104.64 532.547 105.888V114H530.891ZM530.747 108.264L527.027 108.696C526.227 108.792 525.619 109.016 525.203 109.368C524.787 109.704 524.579 110.152 524.579 110.712C524.579 111.272 524.779 111.72 525.179 112.056C525.595 112.392 526.187 112.56 526.955 112.56C527.835 112.56 528.555 112.384 529.115 112.032C529.675 111.68 530.083 111.208 530.339 110.616C530.611 110.008 530.747 109.352 530.747 108.648V108.264Z" fill="#E0E0E0"/>
<path d="M550.921 102H552.794L545.929 118.8H544.201L546.242 113.832L541.394 102H543.361L547.201 111.696L550.921 102Z" fill="#E0E0E0"/>
<path d="M561.817 102H563.473L563.593 103.728C563.945 103.152 564.417 102.696 565.009 102.36C565.617 102.008 566.337 101.832 567.169 101.832C568.017 101.832 568.785 102.04 569.473 102.456C570.177 102.856 570.721 103.456 571.105 104.256C571.473 103.44 572.033 102.832 572.785 102.432C573.537 102.032 574.369 101.832 575.281 101.832C576.177 101.832 576.969 102.032 577.657 102.432C578.345 102.816 578.881 103.4 579.265 104.184C579.649 104.952 579.841 105.92 579.841 107.088V114H578.041V107.304C578.041 106.056 577.769 105.112 577.225 104.472C576.697 103.816 575.937 103.488 574.945 103.488C573.937 103.488 573.137 103.84 572.545 104.544C571.953 105.232 571.657 106.256 571.657 107.616V114H569.857V107.304C569.857 106.056 569.601 105.112 569.089 104.472C568.577 103.816 567.825 103.488 566.833 103.488C565.825 103.488 565.033 103.84 564.457 104.544C563.897 105.232 563.617 106.256 563.617 107.616V114H561.817V102Z" fill="#E0E0E0"/>
<path d="M589.932 96.84V98.352L585.42 100.848V99.552L589.932 96.84ZM590.844 114L590.7 111.84C590.364 112.576 589.868 113.152 589.212 113.568C588.556 113.968 587.724 114.168 586.716 114.168C585.852 114.168 585.116 114.032 584.508 113.76C583.9 113.488 583.428 113.104 583.092 112.608C582.772 112.096 582.612 111.496 582.612 110.808C582.612 109.8 582.988 108.976 583.74 108.336C584.492 107.68 585.58 107.28 587.004 107.136L590.7 106.728V105.768C590.7 105.096 590.452 104.56 589.956 104.16C589.46 103.744 588.788 103.536 587.94 103.536C587.108 103.536 586.412 103.728 585.852 104.112C585.308 104.496 584.932 105.048 584.724 105.768L583.092 105.192C583.412 104.136 583.996 103.312 584.844 102.72C585.708 102.128 586.756 101.832 587.988 101.832C589.412 101.832 590.516 102.2 591.3 102.936C592.1 103.656 592.5 104.64 592.5 105.888V114H590.844ZM590.7 108.264L586.98 108.696C586.18 108.792 585.572 109.016 585.156 109.368C584.74 109.704 584.532 110.152 584.532 110.712C584.532 111.272 584.732 111.72 585.132 112.056C585.548 112.392 586.14 112.56 586.908 112.56C587.788 112.56 588.508 112.384 589.068 112.032C589.628 111.68 590.036 111.208 590.292 110.616C590.564 110.008 590.7 109.352 590.7 108.648V108.264Z" fill="#E0E0E0"/>
<path d="M596.996 110.328C597.092 110.808 597.268 111.208 597.524 111.528C597.78 111.832 598.108 112.064 598.508 112.224C598.924 112.384 599.404 112.464 599.948 112.464C600.796 112.464 601.436 112.304 601.868 111.984C602.316 111.648 602.54 111.232 602.54 110.736C602.54 110.32 602.404 109.984 602.132 109.728C601.876 109.472 601.532 109.264 601.1 109.104C600.668 108.928 600.188 108.776 599.66 108.648C599.244 108.552 598.796 108.44 598.316 108.312C597.836 108.168 597.38 107.976 596.948 107.736C596.516 107.496 596.164 107.184 595.892 106.8C595.62 106.416 595.484 105.912 595.484 105.288C595.484 104.6 595.668 104 596.036 103.488C596.42 102.96 596.94 102.552 597.596 102.264C598.268 101.976 599.036 101.832 599.9 101.832C600.892 101.832 601.772 102.048 602.54 102.48C603.324 102.912 603.868 103.584 604.172 104.496L602.492 105.072C602.38 104.656 602.172 104.336 601.868 104.112C601.58 103.888 601.252 103.736 600.884 103.656C600.532 103.576 600.18 103.536 599.828 103.536C599.108 103.536 598.524 103.68 598.076 103.968C597.644 104.24 597.428 104.656 597.428 105.216C597.428 105.52 597.5 105.776 597.644 105.984C597.788 106.176 597.988 106.336 598.244 106.464C598.5 106.592 598.804 106.704 599.156 106.8C599.508 106.88 599.892 106.976 600.308 107.088C600.772 107.2 601.244 107.344 601.724 107.52C602.204 107.68 602.652 107.896 603.068 108.168C603.484 108.424 603.82 108.76 604.076 109.176C604.348 109.576 604.484 110.08 604.484 110.688C604.484 111.392 604.292 112.008 603.908 112.536C603.524 113.048 602.988 113.448 602.3 113.736C601.628 114.024 600.844 114.168 599.948 114.168C598.716 114.168 597.692 113.896 596.876 113.352C596.076 112.792 595.54 111.976 595.268 110.904L596.996 110.328Z" fill="#E0E0E0"/>
</svg>
