<svg width="199" height="117" viewBox="0 0 199 117" fill="none" xmlns="http://www.w3.org/2000/svg">
<path d="M37.9529 37.9529H48.2105V105.653H37.9529V37.9529Z" fill="#F5F5F5"/>
<rect x="16.4121" y="115.91" width="10.2576" height="53.3393" transform="rotate(-90 16.4121 115.91)" fill="#F5F5F5"/>
<rect x="48.2834" y="44.9698" width="10.2576" height="53.3393" transform="rotate(-135 48.2834 44.9698)" fill="#F5F5F5"/>
<rect x="44.9698" y="37.7166" width="10.2576" height="53.3393" transform="rotate(135 44.9698 37.7166)" fill="#F5F5F5"/>
<path d="M43 29.5L19 6L66.1848 6L43 29.5Z" fill="#DA5C26"/>
<path fill-rule="evenodd" clip-rule="evenodd" d="M135.983 2L169.965 103.562L195.549 95.618L198.515 105.168L163.465 116.051L161.739 110.491L142.061 51.679L97.6915 115.045L86 115L138.114 39.8847L128.784 12H106.5V2H135.5V2.16169L135.983 2Z" fill="#DA5C26"/>
</svg>
